<?xml version="1.0" encoding="UTF-8"?>
<svg id="Layer_2" data-name="Layer 2" xmlns="http://www.w3.org/2000/svg" width="651.72" height="201.55" viewBox="0 0 651.72 201.55">
  <g id="Layer_1-2" data-name="Layer 1">
    <g>
      <path d="M75.89,102.54l-42.76.02c-14.94-.97-31.48-10.55-32.69-26.89C-.18,67.13.16,56.57.06,47.81-.13,31.89.24,15.94.07.01h93.05c11.9,1.11,23.25,4.55,32.29,12.57,22.18,19.69,18.42,57.68-9.29,69.84l11.18,6.41c38.23,30.07,12.35,81.99-33.02,81.04l-92.8-.08-.56-.81c.47-12.6,6.52-23.83,17.71-29.89,2.83-1.53,9.49-4.05,12.58-4.05h44.29v13.54l33.26-29.98-32.87-29.21v13.15ZM39.14,68.88h41.97c18.09,0,22.39-25.46,6.87-31.24-.95-.35-3.72-1.25-4.55-1.25h-44.29v32.5Z" style="fill: #00d492;"/>
      <g>
        <path d="M161.73,91.34c-1.99-1.91-2.98-4.28-2.98-7.12s.99-5.21,2.98-7.12c1.99-1.91,4.48-2.86,7.49-2.86s5.5.96,7.49,2.86c1.99,1.91,2.98,4.28,2.98,7.12s-.99,5.22-2.98,7.12c-1.99,1.91-4.48,2.86-7.49,2.86s-5.5-.95-7.49-2.86Z" style="fill: #161616;"/>
        <rect x="160.58" y="102.23" width="17.04" height="67.43" style="fill: #161616;"/>
        <path d="M251.26,108.86c4.95,5.07,7.42,12.15,7.42,21.24v39.56h-17.04v-37.25c0-5.36-1.34-9.47-4.02-12.35-2.68-2.88-6.33-4.32-10.96-4.32s-8.42,1.44-11.14,4.32c-2.72,2.88-4.08,7-4.08,12.35v37.25h-17.04v-67.43h17.04v8.4c2.27-2.92,5.17-5.21,8.7-6.88,3.53-1.66,7.4-2.5,11.62-2.5,8.03,0,14.53,2.54,19.48,7.61Z" style="fill: #161616;"/>
        <path d="M337.56,134.48c0-6.57-1.4-12.39-4.2-17.47-2.8-5.07-6.74-8.99-11.81-11.75-5.07-2.76-10.81-4.14-17.22-4.14s-12.54,1.42-17.65,4.26c-5.11,2.84-9.09,6.9-11.93,12.17-2.84,5.28-4.26,11.4-4.26,18.38s1.44,12.98,4.32,18.26c2.88,5.28,6.9,9.35,12.05,12.23,5.15,2.88,10.97,4.32,17.47,4.32,8.03,0,14.81-2.09,20.33-6.27,5.52-4.18,9.25-9.51,11.2-16.01h-18.38c-2.68,5.44-7.18,8.16-13.51,8.16-4.38,0-8.08-1.38-11.08-4.14-3-2.76-4.71-6.57-5.11-11.44h49.3c.32-1.95.49-4.14.49-6.57ZM287.89,129.62c.65-4.54,2.41-8.09,5.29-10.65,2.88-2.56,6.43-3.83,10.65-3.83,4.46,0,8.24,1.32,11.32,3.96,3.08,2.64,4.67,6.15,4.75,10.53h-32.01Z" style="fill: #161616;"/>
        <polygon points="414.48 102.23 372.73 201.55 354.6 201.55 369.2 167.96 342.18 102.23 361.29 102.23 378.7 149.33 396.35 102.23 414.48 102.23" style="fill: #161616;"/>
        <path d="M443.45,116.23v32.62c0,2.27.55,3.92,1.64,4.93,1.1,1.02,2.94,1.52,5.54,1.52h7.91v14.36h-10.71c-14.36,0-21.54-6.98-21.54-20.94v-32.5h-8.03v-14h8.03v-16.68h17.16v16.68h15.09v14h-15.09Z" style="fill: #161616;"/>
        <path d="M527.68,108.86c4.95,5.07,7.42,12.15,7.42,21.24v39.56h-17.04v-37.25c0-5.36-1.34-9.47-4.02-12.35-2.68-2.88-6.33-4.32-10.96-4.32s-8.42,1.44-11.14,4.32c-2.72,2.88-4.08,7-4.08,12.35v37.25h-17.04v-67.43h17.04v8.4c2.27-2.92,5.17-5.21,8.7-6.88,3.53-1.66,7.4-2.5,11.62-2.5,8.03,0,14.52,2.54,19.48,7.61Z" style="fill: #161616;"/>
        <path d="M599.98,102.23v9.62c-2.27-3.08-5.29-5.64-9.07-7.67-3.77-2.03-8.18-3.04-13.21-3.04-5.76,0-10.98,1.42-15.64,4.26-4.67,2.84-8.36,6.9-11.08,12.17-2.72,5.28-4.08,11.32-4.08,18.14s1.36,13,4.08,18.32c2.72,5.32,6.41,9.43,11.08,12.35,4.67,2.92,9.84,4.38,15.52,4.38,5.03,0,9.47-1.04,13.33-3.1,3.85-2.07,6.88-4.69,9.07-7.85v9.86h17.16v-67.43h-17.16ZM597.55,146.6c-1.62,2.96-3.82,5.23-6.57,6.82-2.76,1.58-5.72,2.37-8.88,2.37s-5.99-.81-8.7-2.43c-2.72-1.62-4.91-3.96-6.57-7-1.66-3.04-2.5-6.59-2.5-10.65s.83-7.57,2.5-10.53c1.66-2.96,3.83-5.21,6.51-6.76,2.68-1.54,5.6-2.31,8.76-2.31s6.12.79,8.88,2.37c2.76,1.58,4.95,3.85,6.57,6.82,1.62,2.96,2.43,6.51,2.43,10.65s-.81,7.69-2.43,10.65Z" style="fill: #161616;"/>
        <path d="M633.76,167.65c-1.99-1.91-2.98-4.28-2.98-7.12s.99-5.21,2.98-7.12c1.99-1.91,4.52-2.86,7.61-2.86s5.48.96,7.42,2.86c1.95,1.91,2.92,4.28,2.92,7.12s-.97,5.21-2.92,7.12c-1.95,1.91-4.42,2.86-7.42,2.86s-5.62-.95-7.61-2.86Z" style="fill: #161616;"/>
      </g>
    </g>
  </g>
</svg>