<?xml version="1.0" encoding="UTF-8"?>
<svg id="Layer_2" data-name="Layer 2" xmlns="http://www.w3.org/2000/svg" width="459.69" height="535.56" viewBox="0 0 459.69 535.56">
  <g id="Layer_1-2" data-name="Layer 1">
    <path d="M239.24,323.25l-134.8.05c-47.11-3.05-99.25-33.25-103.04-84.77-1.98-26.91-.9-60.21-1.23-87.8C-.42,100.52.75,50.25.23.04l293.33-.04c37.5,3.55,73.3,14.38,101.79,39.67,69.91,62.06,58.06,181.83-29.27,220.17l35.25,20.21c120.52,94.78,38.92,258.47-104.1,255.46l-292.54-.24-1.78-2.57c1.49-39.71,20.54-75.12,55.83-94.23,8.92-4.83,29.92-12.78,39.66-12.78h139.63v42.69l104.85-94.52-103.63-92.08v41.47ZM123.4,217.14h132.31c57.02,0,70.6-80.25,21.66-98.5-3-1.12-11.73-3.95-14.34-3.95H123.4v102.45Z" style="fill: #00d492;"/>
  </g>
</svg>